<?xml version="1.0" encoding="UTF-8"?>
<svg enable-background="new 0 0 44 44" version="1.1" viewBox="0 0 44 44" xmlns="http://www.w3.org/2000/svg">
<path fill="#f8e500" d="m3 21h-2c-0.552 0-1 0.447-1 1s0.448 1 1 1h2c0.552 0 1-0.447 1-1s-0.448-1-1-1zm40 0h-2c-0.552 0-1 0.447-1 1s0.448 1 1 1h2c0.552 0 1-0.447 1-1s-0.448-1-1-1z" fill-rule="evenodd"/>
<path fill="#f8e500" d="m36 14c-0.552 0-1 0.447-1 1v14c0 0.553 0.448 1 1 1s1-0.447 1-1v-14c0-0.553-0.448-1-1-1zm-20 0c-0.552 0-1 0.447-1 1v14c0 0.553 0.448 1 1 1s1-0.447 1-1v-14c0-0.553-0.448-1-1-1zm-8 4c-0.552 0-1 0.447-1 1v6c0 0.553 0.448 1 1 1s1-0.447 1-1v-6c0-0.553-0.448-1-1-1zm24-8c-0.552 0-1 0.447-1 1v22c0 0.553 0.448 1 1 1s1-0.447 1-1v-22c0-0.553-0.448-1-1-1zm-8 0c-0.552 0-1 0.447-1 1v22c0 0.553 0.448 1 1 1s1-0.447 1-1v-22c0-0.553-0.448-1-1-1zm-12 0c-0.552 0-1 0.447-1 1v22c0 0.553 0.448 1 1 1s1-0.447 1-1v-22c0-0.553-0.448-1-1-1zm16-4c-0.552 0-1 0.447-1 1v30c0 0.553 0.448 1 1 1s1-0.447 1-1v-30c0-0.553-0.448-1-1-1zm-8 0c-0.552 0-1 0.447-1 1v30c0 0.553 0.448 1 1 1s1-0.447 1-1v-30c0-0.553-0.448-1-1-1z" fill-rule="evenodd"/>
</svg>