<?xml version="1.0" encoding="UTF-8"?>
<svg enable-background="new 0 0 333.437 333.437" version="1.1" viewBox="0 0 333.44 333.44" xml:space="preserve" xmlns="http://www.w3.org/2000/svg">
	<path d="m321.64 264.65-64.519-64.519c10.135-19.056 15.932-40.759 15.932-63.806 0-75.168-61.145-136.33-136.3-136.33-75.182 0-136.35 61.158-136.35 136.33 0 75.162 61.164 136.31 136.34 136.31 22.616 0 43.915-5.623 62.707-15.412l64.802 64.802c7.365 7.359 17.147 11.408 27.552 11.408s20.193-4.055 27.552-11.408l2.275-2.275c15.186-15.18 15.186-39.904 0-55.103zm-308.37-128.32c0-68.079 55.399-123.47 123.49-123.47 68.073 0 123.45 55.393 123.45 123.47 0 21.164-5.366 41.1-14.788 58.523l-0.72 1.234c-1.015 1.838-2.159 3.605-3.271 5.379-1.497 2.41-3.078 4.756-4.73 7.05-1.054 1.459-2.114 2.911-3.233 4.319-1.035 1.311-2.108 2.596-3.194 3.869-1.311 1.523-2.674 3.001-4.055 4.46-1.26 1.33-2.532 2.648-3.856 3.92-1.857 1.793-3.766 3.541-5.746 5.225-1.118 0.951-2.275 1.87-3.426 2.789-1.658 1.311-3.355 2.571-5.077 3.798-1.105 0.791-2.192 1.6-3.323 2.352-19.525 12.956-42.899 20.54-68.034 20.54-68.086 2e-3 -123.49-55.379-123.49-123.46zm299.28 174.34-2.275 2.275c-4.936 4.929-11.491 7.641-18.464 7.641s-13.528-2.719-18.464-7.641l-62.372-62.372c0.18-0.122 0.353-0.264 0.533-0.392 3.13-2.063 6.144-4.293 9.094-6.607 0.623-0.482 1.285-0.925 1.902-1.42 10.752-8.734 20.148-19.062 27.828-30.63l62.218 62.218c10.174 10.186 10.174 26.754 0 36.928z"/>
</svg>